<svg id="bold" enable-background="new 0 0 24 24" height="512" viewBox="0 0 24 24" width="512" xmlns="http://www.w3.org/2000/svg"><path d="m19.25 0h-14.5c-1.517 0-2.75 1.233-2.75 2.75v18.5c0 1.517 1.233 2.75 2.75 2.75h14.5c1.517 0 2.75-1.233 2.75-2.75v-18.5c0-1.517-1.233-2.75-2.75-2.75zm-11 15.5h-.5v3.75c0 .414-.336.75-.75.75s-.75-.336-.75-.75v-3.75h-.5c-.414 0-.75-.336-.75-.75s.336-.75.75-.75h2.5c.414 0 .75.336.75.75s-.336.75-.75.75zm5.656 3.386c.201.362.071.819-.292 1.02-.115.064-.24.094-.364.094-.263 0-.519-.139-.656-.386l-.594-1.069-.594 1.07c-.137.246-.393.385-.656.385-.124 0-.249-.03-.364-.094-.362-.201-.493-.658-.292-1.02l1.048-1.886-1.048-1.886c-.201-.362-.071-.819.292-1.02.361-.202.818-.071 1.02.292l.594 1.069.594-1.07c.201-.362.659-.493 1.02-.292.362.201.493.658.292 1.02l-1.048 1.887zm4.344-3.386h-.5v3.75c0 .414-.336.75-.75.75s-.75-.336-.75-.75v-3.75h-.5c-.414 0-.75-.336-.75-.75s.336-.75.75-.75h2.5c.414 0 .75.336.75.75s-.336.75-.75.75z"/></svg>